<svg width="400" height="300" viewBox="0 0 400 300" xmlns="http://www.w3.org/2000/svg">
  <!-- Background -->
  <rect width="400" height="300" fill="#f0fdf4"/>
  
  <!-- Grid pattern -->
  <defs>
    <pattern id="grid" width="20" height="20" patternUnits="userSpaceOnUse">
      <path d="M 20 0 L 0 0 0 20" fill="none" stroke="#dcfce7" stroke-width="1"/>
    </pattern>
  </defs>
  <rect width="400" height="300" fill="url(#grid)"/>
  
  <!-- Browser window -->
  <rect x="40" y="40" width="320" height="220" rx="10" fill="#ffffff" stroke="#d1d5db" stroke-width="2"/>
  
  <!-- Browser header -->
  <rect x="40" y="40" width="320" height="30" rx="10" fill="#f3f4f6"/>
  <rect x="40" y="60" width="320" height="10" fill="#f3f4f6"/>
  
  <!-- Browser controls -->
  <circle cx="55" cy="55" r="4" fill="#ef4444"/>
  <circle cx="70" cy="55" r="4" fill="#f59e0b"/>
  <circle cx="85" cy="55" r="4" fill="#22c55e"/>
  
  <!-- URL bar -->
  <rect x="110" y="47" width="200" height="16" rx="8" fill="#ffffff" stroke="#d1d5db" stroke-width="1"/>
  <text x="115" y="57" fill="#6b7280" font-family="Arial, sans-serif" font-size="8">www.ecommerce-platform.com</text>
  
  <!-- Header -->
  <rect x="50" y="80" width="300" height="40" fill="#059669"/>
  <text x="200" y="105" text-anchor="middle" fill="white" font-family="Arial, sans-serif" font-size="16" font-weight="bold">E-COMMERCE</text>
  
  <!-- Navigation -->
  <rect x="50" y="120" width="60" height="20" fill="#10b981" opacity="0.8"/>
  <text x="80" y="133" text-anchor="middle" fill="white" font-family="Arial, sans-serif" font-size="8">Products</text>
  
  <rect x="120" y="120" width="60" height="20" fill="#10b981" opacity="0.6"/>
  <text x="150" y="133" text-anchor="middle" fill="white" font-family="Arial, sans-serif" font-size="8">Categories</text>
  
  <rect x="290" y="120" width="60" height="20" fill="#10b981" opacity="0.6"/>
  <text x="320" y="133" text-anchor="middle" fill="white" font-family="Arial, sans-serif" font-size="8">Cart (3)</text>
  
  <!-- Product grid -->
  <rect x="60" y="150" width="80" height="80" rx="5" fill="#ffffff" stroke="#d1d5db" stroke-width="1"/>
  <rect x="65" y="155" width="70" height="50" fill="#f3f4f6"/>
  <text x="100" y="180" text-anchor="middle" fill="#9ca3af" font-family="Arial, sans-serif" font-size="8">Product</text>
  <text x="100" y="190" text-anchor="middle" fill="#9ca3af" font-family="Arial, sans-serif" font-size="8">Image</text>
  <text x="100" y="215" text-anchor="middle" fill="#374151" font-family="Arial, sans-serif" font-size="9" font-weight="bold">Rp 299.000</text>
  <rect x="75" y="220" width="50" height="8" rx="4" fill="#059669"/>
  <text x="100" y="226" text-anchor="middle" fill="white" font-family="Arial, sans-serif" font-size="6">Add to Cart</text>
  
  <rect x="160" y="150" width="80" height="80" rx="5" fill="#ffffff" stroke="#d1d5db" stroke-width="1"/>
  <rect x="165" y="155" width="70" height="50" fill="#f3f4f6"/>
  <text x="200" y="180" text-anchor="middle" fill="#9ca3af" font-family="Arial, sans-serif" font-size="8">Product</text>
  <text x="200" y="190" text-anchor="middle" fill="#9ca3af" font-family="Arial, sans-serif" font-size="8">Image</text>
  <text x="200" y="215" text-anchor="middle" fill="#374151" font-family="Arial, sans-serif" font-size="9" font-weight="bold">Rp 199.000</text>
  <rect x="175" y="220" width="50" height="8" rx="4" fill="#059669"/>
  <text x="200" y="226" text-anchor="middle" fill="white" font-family="Arial, sans-serif" font-size="6">Add to Cart</text>
  
  <rect x="260" y="150" width="80" height="80" rx="5" fill="#ffffff" stroke="#d1d5db" stroke-width="1"/>
  <rect x="265" y="155" width="70" height="50" fill="#f3f4f6"/>
  <text x="300" y="180" text-anchor="middle" fill="#9ca3af" font-family="Arial, sans-serif" font-size="8">Product</text>
  <text x="300" y="190" text-anchor="middle" fill="#9ca3af" font-family="Arial, sans-serif" font-size="8">Image</text>
  <text x="300" y="215" text-anchor="middle" fill="#374151" font-family="Arial, sans-serif" font-size="9" font-weight="bold">Rp 399.000</text>
  <rect x="275" y="220" width="50" height="8" rx="4" fill="#059669"/>
  <text x="300" y="226" text-anchor="middle" fill="white" font-family="Arial, sans-serif" font-size="6">Add to Cart</text>
  
  <!-- Shopping cart icon -->
  <circle cx="370" cy="280" r="15" fill="#059669" opacity="0.1"/>
  <path d="M365 275 L375 275 L373 285 L367 285 Z" fill="#059669"/>
  <circle cx="368" cy="287" r="1" fill="#059669"/>
  <circle cx="372" cy="287" r="1" fill="#059669"/>
  <path d="M365 275 L367 270 L375 270" fill="none" stroke="#059669" stroke-width="1"/>
  
  <!-- Payment icons -->
  <rect x="60" y="240" width="20" height="12" rx="2" fill="#1f2937"/>
  <text x="70" y="248" text-anchor="middle" fill="white" font-family="Arial, sans-serif" font-size="6">VISA</text>
  
  <rect x="90" y="240" width="20" height="12" rx="2" fill="#dc2626"/>
  <circle cx="95" cy="246" r="3" fill="white" opacity="0.8"/>
  <circle cx="105" cy="246" r="3" fill="white" opacity="0.8"/>
</svg>